<?xml version="1.0" encoding="utf-8"?>
<!-- Generator: Adobe Illustrator 21.0.0, SVG Export Plug-In . SVG Version: 6.00 Build 0)  -->
<svg version="1.1" xmlns="http://www.w3.org/2000/svg" xmlns:xlink="http://www.w3.org/1999/xlink" x="0px" y="0px"
	 viewBox="0 0 64 64" style="enable-background:new 0 0 64 64;" xml:space="preserve">
<style type="text/css">
	.st0{fill:#FFFFFF;}
	.st1{fill:url(#SVGID_1_);stroke:#231F20;stroke-width:0.25;stroke-miterlimit:10;}
	.st2{fill:none;stroke:#231F20;stroke-miterlimit:10;}
	.st3{fill:none;stroke:#231F20;stroke-width:0.25;stroke-miterlimit:10;}
	.st4{fill:url(#SVGID_2_);}
	.st5{fill:url(#SVGID_3_);}
	.st6{fill:url(#SVGID_4_);}
	.st7{fill:url(#SVGID_5_);}
	.st8{fill:url(#SVGID_6_);}
	.st9{fill:url(#SVGID_7_);}
	.st10{fill:url(#SVGID_8_);}
	.st11{fill:url(#SVGID_9_);}
	.st12{fill:url(#SVGID_10_);}
	.st13{fill:url(#SVGID_11_);}
</style>
<g id="graph">
	<g id="bg">
		<circle class="st0" cx="32.1" cy="32.6" r="23.1"/>
	</g>
	<linearGradient id="SVGID_1_" gradientUnits="userSpaceOnUse" x1="32" y1="12.9973" x2="32" y2="47.3723">
		<stop  offset="0" style="stop-color:#F7941D"/>
		<stop  offset="1" style="stop-color:#BE1E2D"/>
	</linearGradient>
	<path class="st1" d="M43.3,30.2h-7.5V13h7.5V30.2z M35.8,24.7h-7.5v14h7.5V24.7z M28.2,33.7h-7.5v13.6h7.5V33.7z"/>
	<rect x="20.7" y="33.7" class="st2" width="7.5" height="17.3"/>
	<rect x="28.2" y="24.7" class="st2" width="7.5" height="26.3"/>
	<rect x="35.8" y="13" class="st2" width="7.5" height="38"/>
</g>
<g id="trend">
	<line class="st3" x1="31.9" y1="11.7" x2="46.7" y2="9.1"/>
	<line class="st3" x1="15.8" y1="33.8" x2="22.5" y2="20.8"/>
	<line class="st3" x1="22.6" y1="20.9" x2="31.8" y2="19.4"/>
	<line class="st3" x1="32" y1="19.4" x2="32" y2="12.1"/>
	<g>
		<linearGradient id="SVGID_2_" gradientUnits="userSpaceOnUse" x1="14.0969" y1="33.7719" x2="17.3928" y2="33.7719">
			<stop  offset="0" style="stop-color:#F7941D"/>
			<stop  offset="1" style="stop-color:#BE1E2D"/>
		</linearGradient>
		<polygon class="st4" points="16.7,35.4 14.1,32.8 14.8,32.1 17.4,34.7 		"/>
		<linearGradient id="SVGID_3_" gradientUnits="userSpaceOnUse" x1="14.137" y1="33.7273" x2="17.4422" y2="33.7273">
			<stop  offset="0" style="stop-color:#F7941D"/>
			<stop  offset="1" style="stop-color:#BE1E2D"/>
		</linearGradient>
		<polygon class="st5" points="14.8,35.4 14.1,34.7 16.7,32.1 17.4,32.8 		"/>
	</g>
	<g>
		<linearGradient id="SVGID_4_" gradientUnits="userSpaceOnUse" x1="20.7642" y1="20.9072" x2="24.0601" y2="20.9072">
			<stop  offset="0" style="stop-color:#F7941D"/>
			<stop  offset="1" style="stop-color:#BE1E2D"/>
		</linearGradient>
		<polygon class="st6" points="23.4,22.6 20.8,20 21.5,19.3 24.1,21.8 		"/>
		<linearGradient id="SVGID_5_" gradientUnits="userSpaceOnUse" x1="20.8042" y1="20.8625" x2="24.1094" y2="20.8625">
			<stop  offset="0" style="stop-color:#F7941D"/>
			<stop  offset="1" style="stop-color:#BE1E2D"/>
		</linearGradient>
		<polygon class="st7" points="21.5,22.5 20.8,21.8 23.4,19.2 24.1,19.9 		"/>
	</g>
	<g>
		<linearGradient id="SVGID_6_" gradientUnits="userSpaceOnUse" x1="30.3477" y1="19.4385" x2="33.6436" y2="19.4385">
			<stop  offset="0" style="stop-color:#F7941D"/>
			<stop  offset="1" style="stop-color:#BE1E2D"/>
		</linearGradient>
		<polygon class="st8" points="32.9,21.1 30.3,18.5 31.1,17.8 33.6,20.4 		"/>
		<linearGradient id="SVGID_7_" gradientUnits="userSpaceOnUse" x1="30.3872" y1="19.3938" x2="33.6924" y2="19.3938">
			<stop  offset="0" style="stop-color:#F7941D"/>
			<stop  offset="1" style="stop-color:#BE1E2D"/>
		</linearGradient>
		<polygon class="st9" points="31.1,21 30.4,20.3 33,17.7 33.7,18.4 		"/>
	</g>
	<g>
		<linearGradient id="SVGID_8_" gradientUnits="userSpaceOnUse" x1="30.3672" y1="11.7026" x2="33.6631" y2="11.7026">
			<stop  offset="0" style="stop-color:#F7941D"/>
			<stop  offset="1" style="stop-color:#BE1E2D"/>
		</linearGradient>
		<polygon class="st10" points="33,13.4 30.4,10.8 31.1,10.1 33.7,12.6 		"/>
		<linearGradient id="SVGID_9_" gradientUnits="userSpaceOnUse" x1="30.4072" y1="11.6584" x2="33.7129" y2="11.6584">
			<stop  offset="0" style="stop-color:#F7941D"/>
			<stop  offset="1" style="stop-color:#BE1E2D"/>
		</linearGradient>
		<polygon class="st11" points="31.1,13.3 30.4,12.6 33,10 33.7,10.7 		"/>
	</g>
	<g>
		<linearGradient id="SVGID_10_" gradientUnits="userSpaceOnUse" x1="45.0204" y1="9.1785" x2="48.3163" y2="9.1785">
			<stop  offset="0" style="stop-color:#F7941D"/>
			<stop  offset="1" style="stop-color:#BE1E2D"/>
		</linearGradient>
		<polygon class="st12" points="47.6,10.8 45,8.2 45.7,7.5 48.3,10.1 		"/>
		<linearGradient id="SVGID_11_" gradientUnits="userSpaceOnUse" x1="45.0604" y1="9.1338" x2="48.3651" y2="9.1338">
			<stop  offset="0" style="stop-color:#F7941D"/>
			<stop  offset="1" style="stop-color:#BE1E2D"/>
		</linearGradient>
		<polygon class="st13" points="45.8,10.8 45.1,10.1 47.7,7.5 48.4,8.2 		"/>
	</g>
</g>
</svg>
