<?xml version="1.0" encoding="utf-8"?>
<!-- Generator: Adobe Illustrator 21.0.0, SVG Export Plug-In . SVG Version: 6.00 Build 0)  -->
<svg version="1.1" xmlns="http://www.w3.org/2000/svg" xmlns:xlink="http://www.w3.org/1999/xlink" x="0px" y="0px"
	 viewBox="0 0 64 64" style="enable-background:new 0 0 64 64;" xml:space="preserve">
<style type="text/css">
	.st0{fill:#FFFFFF;}
	.st1{fill:#FFFFFF;stroke:#BE1E2D;stroke-width:0.25;stroke-miterlimit:10;}
	.st2{fill:#BE1E2D;stroke:#BE1E2D;stroke-width:0.25;stroke-miterlimit:10;}
	.st3{fill:url(#SVGID_1_);stroke:#BE1E2D;stroke-width:0.25;stroke-miterlimit:10;}
	.st4{fill:url(#SVGID_2_);stroke:#BE1E2D;stroke-width:0.25;stroke-miterlimit:10;}
	.st5{fill:url(#SVGID_3_);stroke:#BE1E2D;stroke-width:0.25;stroke-miterlimit:10;}
</style>
<g id="bg">
	<circle class="st0" cx="32.1" cy="32.6" r="23.1"/>
</g>
<g id="graph">
	<g>
		<circle class="st1" cx="15.2" cy="19.4" r="4.7"/>
		<path class="st2" d="M15.2,25.1c-3.2,0-5.7-2.6-5.7-5.7c0-3.2,2.6-5.7,5.7-5.7c3.2,0,5.7,2.6,5.7,5.7C21,22.5,18.4,25.1,15.2,25.1
			z M15.2,15.6c-2.1,0-3.7,1.7-3.7,3.7s1.7,3.7,3.7,3.7s3.7-1.7,3.7-3.7S17.3,15.6,15.2,15.6z"/>
	</g>
	<g>
		<circle class="st1" cx="15.2" cy="33.2" r="4.7"/>
		<path class="st2" d="M15.2,39c-3.2,0-5.7-2.6-5.7-5.7c0-3.2,2.6-5.7,5.7-5.7c3.2,0,5.7,2.6,5.7,5.7C21,36.4,18.4,39,15.2,39z
			 M15.2,29.5c-2.1,0-3.7,1.7-3.7,3.7c0,2.1,1.7,3.7,3.7,3.7s3.7-1.7,3.7-3.7C19,31.2,17.3,29.5,15.2,29.5z"/>
	</g>
	<g>
		<circle class="st1" cx="15.2" cy="47.1" r="4.7"/>
		<path class="st2" d="M15.2,52.8c-3.2,0-5.7-2.6-5.7-5.7s2.6-5.7,5.7-5.7c3.2,0,5.7,2.6,5.7,5.7S18.4,52.8,15.2,52.8z M15.2,43.4
			c-2.1,0-3.7,1.7-3.7,3.7s1.7,3.7,3.7,3.7s3.7-1.7,3.7-3.7S17.3,43.4,15.2,43.4z"/>
	</g>
	<linearGradient id="SVGID_1_" gradientUnits="userSpaceOnUse" x1="53.4575" y1="19.3577" x2="23.9154" y2="19.3577">
		<stop  offset="0" style="stop-color:#F7941D"/>
		<stop  offset="1" style="stop-color:#BE1E2D"/>
	</linearGradient>
	<path class="st3" d="M50.6,23.3H26.8c-1.6,0-2.9-1.3-2.9-2.9v-2.2c0-1.6,1.3-2.9,2.9-2.9h23.8c1.6,0,2.9,1.3,2.9,2.9v2.2
		C53.5,22,52.2,23.3,50.6,23.3z"/>
	<linearGradient id="SVGID_2_" gradientUnits="userSpaceOnUse" x1="53.4575" y1="33.2386" x2="23.9154" y2="33.2386">
		<stop  offset="0" style="stop-color:#F7941D"/>
		<stop  offset="1" style="stop-color:#BE1E2D"/>
	</linearGradient>
	<path class="st4" d="M50.6,37.2H26.8c-1.6,0-2.9-1.3-2.9-2.9v-2.2c0-1.6,1.3-2.9,2.9-2.9h23.8c1.6,0,2.9,1.3,2.9,2.9v2.2
		C53.5,35.9,52.2,37.2,50.6,37.2z"/>
	<linearGradient id="SVGID_3_" gradientUnits="userSpaceOnUse" x1="53.4575" y1="47.8734" x2="23.9154" y2="47.8734">
		<stop  offset="0" style="stop-color:#F7941D"/>
		<stop  offset="1" style="stop-color:#BE1E2D"/>
	</linearGradient>
	<path class="st5" d="M50.6,51.8H26.8c-1.6,0-2.9-1.3-2.9-2.9v-2.2c0-1.6,1.3-2.9,2.9-2.9h23.8c1.6,0,2.9,1.3,2.9,2.9V49
		C53.5,50.6,52.2,51.8,50.6,51.8z"/>
</g>
<g id="trend">
</g>
</svg>
